<?xml version="1.0" standalone="no"?>
<!DOCTYPE svg PUBLIC "-//W3C//DTD SVG 20010904//EN"
 "http://www.w3.org/TR/2001/REC-SVG-20010904/DTD/svg10.dtd">
<svg version="1.0" xmlns="http://www.w3.org/2000/svg"
 width="1000.000000pt" height="1000.000000pt" viewBox="0 0 1000.000000 1000.000000"
 preserveAspectRatio="xMidYMid meet">
<metadata>
Created by potrace 1.11, written by Peter Selinger 2001-2013
</metadata>
<g transform="translate(0.000000,1000.000000) scale(0.100000,-0.100000)"
fill="#000000" stroke="none">
<path d="M0 5000 l0 -5000 5000 0 5000 0 0 5000 0 5000 -5000 0 -5000 0 0
-5000z m4858 2190 c251 -149 528 -391 708 -620 176 -223 315 -499 358 -712 44
-218 23 -493 -65 -827 -16 -62 -27 -116 -24 -119 9 -9 150 135 205 209 60 80
121 199 149 294 26 83 51 222 51 279 0 88 36 156 82 156 53 0 175 -175 250
-358 68 -167 128 -434 158 -697 31 -279 -11 -760 -86 -983 -117 -351 -399
-647 -809 -851 -539 -267 -1095 -279 -1590 -33 -489 242 -834 696 -953 1251
-25 118 -26 142 -26 371 1 265 14 375 68 562 98 336 253 529 686 853 349 260
455 359 552 515 104 167 134 368 88 588 -21 102 -18 145 14 167 38 27 77 18
184 -45z m-972 -515 c23 -16 82 -131 110 -215 25 -76 25 -202 0 -257 -14 -33
-74 -89 -285 -270 -146 -125 -272 -229 -278 -231 -18 -5 -14 4 108 258 140
292 214 484 244 635 8 45 42 95 63 95 9 0 27 -7 38 -15z"/>
<path d="M4357 5642 c-311 -161 -539 -472 -632 -862 -24 -102 -30 -307 -11
-420 51 -310 188 -572 421 -806 222 -222 460 -351 740 -399 207 -36 479 20
761 155 202 97 388 249 446 365 46 91 72 209 57 254 -20 56 -52 53 -235 -20
-143 -58 -178 -61 -260 -19 -151 75 -287 293 -412 660 -35 103 -53 143 -78
168 -36 36 -52 39 -94 17 -77 -40 -150 -294 -150 -519 0 -98 17 -257 36 -330
10 -40 -17 -33 -110 27 -268 175 -455 476 -512 825 -12 72 -15 133 -10 237 7
196 46 345 138 528 37 75 48 108 46 135 -3 33 -6 37 -34 40 -21 2 -56 -10
-107 -36z"/>
</g>
</svg>
