<?xml version="1.0" standalone="no"?>
<!DOCTYPE svg PUBLIC "-//W3C//DTD SVG 20010904//EN"
 "http://www.w3.org/TR/2001/REC-SVG-20010904/DTD/svg10.dtd">
<svg version="1.0" xmlns="http://www.w3.org/2000/svg"
 width="2048.000000pt" height="2048.000000pt" viewBox="0 0 2048.000000 2048.000000"
 preserveAspectRatio="xMidYMid meet">
<metadata>
Created by potrace 1.11, written by Peter Selinger 2001-2013
</metadata>
<g transform="translate(0.000000,2048.000000) scale(0.100000,-0.100000)"
fill="#000000" stroke="none">
<path d="M10171 17089 c-240 -32 -431 -166 -569 -401 -35 -59 -95 -169 -134
-245 -95 -184 -301 -555 -406 -728 -47 -77 -108 -178 -136 -225 -86 -144 -383
-584 -549 -812 -86 -120 -270 -360 -409 -535 -267 -337 -660 -859 -736 -976
-55 -86 -222 -388 -303 -548 -235 -469 -354 -1007 -335 -1512 17 -457 117
-857 317 -1262 320 -652 840 -1175 1529 -1540 474 -251 833 -372 1285 -436
591 -82 1208 -21 1747 175 295 107 670 296 928 469 748 501 1258 1237 1434
2067 108 513 76 1088 -88 1583 -65 198 -168 429 -269 602 -80 138 -372 570
-495 733 -69 92 -231 298 -360 457 -262 323 -502 639 -669 880 -168 243 -417
634 -493 774 -81 151 -218 440 -347 731 -85 193 -178 368 -236 445 -163 217
-447 339 -706 304z m1930 -3806 c81 -40 194 -153 236 -238 46 -90 95 -255 173
-581 146 -609 177 -931 130 -1329 -25 -213 -35 -270 -70 -420 -51 -214 -105
-369 -200 -580 -67 -148 -171 -298 -344 -495 -266 -301 -454 -450 -771 -605
-170 -84 -241 -111 -413 -160 -322 -90 -629 -106 -954 -50 -300 51 -426 102
-702 282 -386 252 -607 500 -755 845 -52 122 -115 341 -138 478 -23 138 -28
435 -10 570 28 208 113 442 222 612 72 111 222 255 320 305 129 65 175 77 300
77 139 0 175 -6 650 -114 593 -134 597 -135 930 -134 270 1 283 2 379 27 148
40 237 88 327 177 154 152 213 343 239 780 13 205 26 285 67 391 72 184 215
245 384 162z"/>
<path d="M6715 8934 c-44 -19 -127 -55 -185 -79 -58 -23 -143 -60 -190 -80
-128 -56 -403 -173 -508 -216 -51 -21 -132 -56 -180 -78 -49 -22 -118 -52
-155 -65 -91 -33 -253 -143 -317 -214 -28 -31 -63 -82 -78 -112 -24 -48 -27
-67 -27 -150 0 -84 3 -102 28 -152 69 -141 249 -275 505 -378 45 -19 82 -36
82 -39 0 -3 -33 -19 -73 -35 -264 -107 -444 -240 -514 -383 l-28 -58 0 -700 0
-700 33 -66 c40 -84 145 -185 263 -256 87 -53 149 -81 1074 -476 303 -129 872
-372 1265 -540 393 -168 873 -373 1067 -456 194 -82 394 -164 445 -181 176
-59 436 -114 593 -124 95 -6 83 -2 -40 14 -117 15 -220 34 -325 60 -47 11 -96
23 -110 26 -58 12 -153 46 -280 99 -74 32 -162 68 -195 82 -33 14 -92 40 -132
59 -39 19 -76 34 -81 34 -6 0 -39 13 -74 29 -35 16 -97 43 -138 61 -41 18
-103 46 -138 61 -34 16 -69 29 -76 29 -7 0 -19 7 -26 15 -7 8 -18 15 -25 15
-6 0 -32 11 -56 23 -24 13 -50 22 -58 19 -8 -3 -11 0 -7 7 4 7 0 11 -12 11
-10 0 -22 3 -26 7 -3 4 -15 8 -25 10 -10 1 -49 16 -87 34 -38 17 -80 35 -94
41 -20 7 -22 11 -10 19 11 7 7 8 -15 4 -16 -3 -24 -2 -17 1 16 8 15 22 -3 41
-8 8 -13 18 -10 23 3 4 -5 6 -17 2 -13 -3 -19 -1 -15 5 5 7 -1 9 -15 5 -21 -5
-21 -7 9 -15 33 -10 50 -34 35 -49 -5 -5 -29 1 -55 12 -35 15 -47 27 -48 43
-1 18 -2 19 -6 4 -3 -11 -10 -16 -20 -13 -8 3 -19 6 -24 6 -6 0 -7 5 -3 12 4
7 3 8 -5 4 -6 -4 -27 2 -45 14 -19 11 -38 19 -43 18 -12 -4 -53 25 -53 38 0 7
-17 11 -42 10 -25 0 -43 4 -46 12 -2 7 -8 10 -13 6 -5 -3 -19 2 -31 11 l-23
17 30 -5 c17 -2 24 -2 18 0 -33 11 2 123 38 123 16 0 19 8 19 58 0 71 8 102
26 102 10 0 14 13 14 40 0 22 5 40 10 40 6 0 10 18 10 40 0 36 3 40 24 40 23
0 24 4 31 80 6 69 10 80 26 80 15 0 19 7 19 40 0 22 5 40 10 40 6 0 10 18 10
40 0 38 2 40 30 40 30 0 30 1 30 53 0 91 10 125 36 131 40 10 26 48 -21 58
-17 3 -15 5 7 10 15 3 25 1 22 -3 -3 -5 2 -9 11 -9 9 0 31 -10 48 -22 17 -12
27 -17 23 -10 -10 16 3 15 36 -2 14 -8 42 -19 62 -26 20 -6 36 -16 36 -22 0
-6 7 -8 14 -5 10 4 13 1 10 -8 -4 -10 0 -12 17 -8 16 5 20 3 14 -6 -5 -9 0
-12 16 -10 13 2 34 -1 47 -5 22 -7 22 -8 5 -22 -20 -15 -6 -19 17 -5 8 6 19 7
25 3 5 -3 15 -7 20 -8 14 -3 368 -151 428 -179 39 -17 152 -65 267 -112 47
-19 103 -42 125 -52 330 -151 560 -212 940 -251 571 -59 1193 18 1595 197 81
36 749 324 940 405 91 38 199 85 240 103 41 18 251 108 465 200 215 92 408
175 430 185 44 20 513 221 935 401 596 255 650 281 776 383 81 66 163 177 165
225 0 12 3 11 9 -4 13 -30 12 123 -1 184 -31 147 -212 303 -487 419 -108 46
-126 57 -118 70 3 5 48 26 98 47 209 83 428 251 478 366 37 88 44 147 26 219
-46 180 -188 301 -528 451 -101 45 -205 90 -233 101 -27 11 -99 41 -160 68
-60 26 -213 91 -340 145 -126 54 -275 117 -330 140 -155 66 -132 72 -221 -56
-227 -327 -522 -625 -862 -867 -475 -339 -1070 -590 -1650 -697 -607 -111
-1094 -108 -1707 10 -373 73 -808 226 -1153 409 -89 47 -175 94 -190 104 -15
11 -92 62 -172 114 -371 242 -719 581 -950 925 -41 62 -82 112 -90 112 -8 1
-51 -15 -95 -35z m685 -3438 c0 -2 -7 -7 -16 -10 -8 -3 -12 -2 -9 4 6 10 25
14 25 6z m44 -48 c-3 -4 -9 -8 -15 -8 -5 0 -9 4 -9 8 0 5 7 9 15 9 8 0 12 -4
9 -9z m131 -28 c3 -5 1 -10 -4 -10 -6 0 -11 5 -11 10 0 6 2 10 4 10 3 0 8 -4
11 -10z m5 -30 c-20 -13 -33 -13 -25 0 3 6 14 10 23 10 15 0 15 -2 2 -10z m27
-30 c1 -16 -1 -17 -12 -7 -11 10 -8 19 10 27 1 0 1 -9 2 -20z m-1017 -690 c8
-5 11 -10 5 -10 -5 0 -17 5 -25 10 -8 5 -10 10 -5 10 6 0 17 -5 25 -10z m100
-50 c0 -5 -7 -7 -15 -4 -8 4 -15 8 -15 10 0 2 7 4 15 4 8 0 15 -4 15 -10z
m279 -81 c-7 -4 -17 -5 -22 -2 -5 3 -3 9 4 14 7 4 17 5 22 2 5 -3 3 -9 -4 -14z
m218 -65 c-3 -3 -12 -4 -19 -1 -8 3 -5 6 6 6 11 1 17 -2 13 -5z m-110 -10 c-3
-3 -12 -4 -19 -1 -8 3 -5 6 6 6 11 1 17 -2 13 -5z m60 -24 c14 -11 21 -20 15
-20 -6 0 -17 6 -24 13 -7 8 -20 16 -28 20 -11 4 -11 6 -2 6 8 1 25 -8 39 -19z
m108 -60 c3 -6 -1 -7 -9 -4 -18 7 -21 14 -7 14 6 0 13 -4 16 -10z m65 -4 c0
-2 -7 -7 -16 -10 -8 -3 -12 -2 -9 4 6 10 25 14 25 6z"/>
<path d="M15345 5399 c-4 -6 -5 -12 -2 -15 2 -3 7 2 10 11 7 17 1 20 -8 4z"/>
<path d="M7757 5294 c2 -7 13 -10 24 -7 27 7 24 21 -5 19 -13 0 -22 -6 -19
-12z"/>
<path d="M8090 5180 c0 -12 28 -25 36 -17 3 3 -4 10 -15 17 -15 7 -21 7 -21 0z"/>
<path d="M8138 5133 c7 -3 16 -2 19 1 4 3 -2 6 -13 5 -11 0 -14 -3 -6 -6z"/>
<path d="M14325 4830 c-3 -6 1 -7 9 -4 18 7 21 14 7 14 -6 0 -13 -4 -16 -10z"/>
<path d="M13995 4690 c-3 -6 1 -7 9 -4 18 7 21 14 7 14 -6 0 -13 -4 -16 -10z"/>
<path d="M7431 4494 c0 -11 3 -14 6 -6 3 7 2 16 -1 19 -3 4 -6 -2 -5 -13z"/>
<path d="M7540 4316 c0 -2 9 -6 20 -9 11 -3 20 -1 20 4 0 5 -9 9 -20 9 -11 0
-20 -2 -20 -4z"/>
<path d="M7486 4295 c21 -16 58 -20 49 -5 -3 5 -12 7 -19 4 -8 -3 -17 -1 -21
5 -3 6 -11 11 -18 11 -6 0 -2 -7 9 -15z"/>
<path d="M7575 4270 c-3 -5 -1 -10 4 -10 6 0 11 5 11 10 0 6 -2 10 -4 10 -3 0
-8 -4 -11 -10z"/>
<path d="M7660 4250 c0 -5 5 -10 10 -10 6 0 10 5 10 10 0 6 -4 10 -10 10 -5 0
-10 -4 -10 -10z"/>
<path d="M7678 4203 c7 -3 16 -2 19 1 4 3 -2 6 -13 5 -11 0 -14 -3 -6 -6z"/>
<path d="M7717 4189 c7 -7 15 -10 18 -7 3 3 -2 9 -12 12 -14 6 -15 5 -6 -5z"/>
<path d="M12805 4180 c-3 -6 1 -7 9 -4 18 7 21 14 7 14 -6 0 -13 -4 -16 -10z"/>
<path d="M12750 4160 c-8 -5 -10 -10 -5 -10 6 0 17 5 25 10 8 5 11 10 5 10 -5
0 -17 -5 -25 -10z"/>
<path d="M12703 4140 c-13 -5 -23 -11 -23 -14 0 -7 40 6 46 15 6 10 6 10 -23
-1z"/>
<path d="M7860 4126 c0 -2 9 -6 20 -9 11 -3 18 -1 14 4 -5 9 -34 13 -34 5z"/>
<path d="M12310 3970 c-8 -5 -10 -10 -5 -10 6 0 17 5 25 10 8 5 11 10 5 10 -5
0 -17 -5 -25 -10z"/>
<path d="M12240 3940 c-8 -5 -10 -10 -5 -10 6 0 17 5 25 10 8 5 11 10 5 10 -5
0 -17 -5 -25 -10z"/>
<path d="M12110 3885 c-14 -8 -20 -14 -15 -14 6 0 21 6 35 14 14 8 21 14 15
14 -5 0 -21 -6 -35 -14z"/>
<path d="M12050 3860 c-8 -5 -10 -10 -5 -10 6 0 17 5 25 10 8 5 11 10 5 10 -5
0 -17 -5 -25 -10z"/>
<path d="M11980 3830 c-8 -5 -10 -10 -5 -10 6 0 17 5 25 10 8 5 11 10 5 10 -5
0 -17 -5 -25 -10z"/>
<path d="M11910 3800 c-19 -11 -30 -19 -25 -19 6 0 26 8 45 19 19 11 31 19 25
19 -5 0 -26 -8 -45 -19z"/>
<path d="M11845 3770 c-3 -6 1 -7 9 -4 18 7 21 14 7 14 -6 0 -13 -4 -16 -10z"/>
<path d="M11770 3740 c-19 -11 -30 -19 -25 -19 6 0 26 8 45 19 19 11 31 19 25
19 -5 0 -26 -8 -45 -19z"/>
<path d="M11680 3700 c-8 -5 -10 -10 -5 -10 6 0 17 5 25 10 8 5 11 10 5 10 -5
0 -17 -5 -25 -10z"/>
<path d="M11630 3680 c-8 -5 -10 -10 -5 -10 6 0 17 5 25 10 8 5 11 10 5 10 -5
0 -17 -5 -25 -10z"/>
<path d="M11560 3650 c-8 -5 -10 -10 -5 -10 6 0 17 5 25 10 8 5 11 10 5 10 -5
0 -17 -5 -25 -10z"/>
<path d="M11473 3615 c-18 -8 -33 -16 -33 -19 0 -5 71 22 79 30 9 8 -15 3 -46
-11z"/>
<path d="M11345 3559 c-22 -10 -29 -16 -15 -13 28 7 80 33 65 33 -5 0 -28 -9
-50 -20z"/>
<path d="M11265 3530 c-13 -6 -15 -9 -5 -9 8 0 22 4 30 9 18 12 2 12 -25 0z"/>
<path d="M11170 3500 c-18 -12 -2 -12 25 0 13 6 15 9 5 9 -8 0 -22 -4 -30 -9z"/>
<path d="M11128 3483 c7 -3 16 -2 19 1 4 3 -2 6 -13 5 -11 0 -14 -3 -6 -6z"/>
<path d="M11005 3460 c-38 -10 -63 -18 -55 -18 8 -1 49 7 90 17 41 11 66 19
55 19 -11 0 -51 -8 -90 -18z"/>
<path d="M10785 3419 c-72 -13 -83 -17 -40 -13 69 6 203 32 165 32 -14 -1 -70
-9 -125 -19z"/>
<path d="M10618 3393 c12 -2 32 -2 45 0 12 2 2 4 -23 4 -25 0 -35 -2 -22 -4z"/>
<path d="M9985 3379 c94 -7 451 -12 444 -5 -2 2 -123 5 -269 8 -146 2 -224 1
-175 -3z"/>
<path d="M10473 3383 c20 -2 54 -2 75 0 20 2 3 4 -38 4 -41 0 -58 -2 -37 -4z"/>
</g>
</svg>
